<svg version="1.2" xmlns="http://www.w3.org/2000/svg" viewBox="0 0 1055 1048" width="1055" height="1048"><defs><clipPath clipPathUnits="userSpaceOnUse" id="cp1"><path d="m0 0h1055v1048h-1055z" /></clipPath><clipPath clipPathUnits="userSpaceOnUse" id="cp2"><path d="m630.5 176.67c-60.53 0-109.5-49.05-109.5-109.5c0-60.53 49.05-109.5 109.5-109.5c60.53 0 109.5 49.04 109.5 109.5c0.07 60.52-48.97 109.5-109.5 109.5z" /></clipPath><clipPath clipPathUnits="userSpaceOnUse" id="cp3"><path d="m630.5 176.67c-60.53 0-109.5-49.05-109.5-109.5c0-60.53 49.05-109.5 109.5-109.5c60.53 0 109.5 49.04 109.5 109.5c0.07 60.52-48.97 109.5-109.5 109.5z" /></clipPath><clipPath clipPathUnits="userSpaceOnUse" id="cp4"><path d="m630.5 176.67c-60.53 0-109.5-49.05-109.5-109.5c0-60.53 49.05-109.5 109.5-109.5c60.53 0 109.5 49.04 109.5 109.5c0.07 60.52-48.97 109.5-109.5 109.5z" /></clipPath><clipPath clipPathUnits="userSpaceOnUse" id="cp5"><path d="m630.5 176.67c-60.53 0-109.5-49.05-109.5-109.5c0-60.53 49.05-109.5 109.5-109.5c60.53 0 109.5 49.04 109.5 109.5c0.07 60.52-48.97 109.5-109.5 109.5z" /></clipPath><clipPath clipPathUnits="userSpaceOnUse" id="cp6"><path d="m630.5 176.67c-60.53 0-109.5-49.05-109.5-109.5c0-60.53 49.05-109.5 109.5-109.5c60.53 0 109.5 49.04 109.5 109.5c0.07 60.52-48.97 109.5-109.5 109.5z" /></clipPath><clipPath clipPathUnits="userSpaceOnUse" id="cp7"><path d="m630.5 176.67c-60.53 0-109.5-49.05-109.5-109.5c0-60.53 49.05-109.5 109.5-109.5c60.53 0 109.5 49.04 109.5 109.5c0.07 60.52-48.97 109.5-109.5 109.5z" /></clipPath><clipPath clipPathUnits="userSpaceOnUse" id="cp8"><path d="m863.33 228.67c-47.35 0-85.66-38.37-85.66-85.67c0-47.35 38.37-85.67 85.66-85.67c47.36 0 85.67 38.37 85.67 85.67c0.06 47.35-38.31 85.67-85.67 85.67z" /></clipPath><clipPath clipPathUnits="userSpaceOnUse" id="cp9"><path d="m863.33 228.67c-47.35 0-85.66-38.37-85.66-85.67c0-47.35 38.37-85.67 85.66-85.67c47.36 0 85.67 38.37 85.67 85.67c0.06 47.35-38.31 85.67-85.67 85.67z" /></clipPath><clipPath clipPathUnits="userSpaceOnUse" id="cp10"><path d="m844.46 172.58v1.94c2.87 1.3 12.6 6.23 17.7 12.33c5.1 6.1 7.47 24.63 7.47 24.63h-81.47c0 0-2.27-15 3-25.7q1-2.04 2.3-3.63c1.9-2.33 4.17-4.03 6.4-5.3c3-1.7 5.97-2.57 7.97-3.13c1.23-0.34 2.06-0.57 2.36-0.77c1.27-0.93 1.24-4.37 2.04-6.03c0.83-1.67 3.03-1.7 3.03-1.7c0 0 6.77 5.96 13.7 8.23c6.93 2.27 11.93 0.8 11.93 0.8c1.84-0.5 3.6-1.67 3.57-1.67z" /></clipPath><clipPath clipPathUnits="userSpaceOnUse" id="cp11"><path d="m863.33 228.67c-47.35 0-85.66-38.37-85.66-85.67c0-47.35 38.37-85.67 85.66-85.67c47.36 0 85.67 38.37 85.67 85.67c0.06 47.35-38.31 85.67-85.67 85.67z" /></clipPath><clipPath clipPathUnits="userSpaceOnUse" id="cp12"><path d="m863.33 228.67c-47.35 0-85.66-38.37-85.66-85.67c0-47.35 38.37-85.67 85.66-85.67c47.36 0 85.67 38.37 85.67 85.67c0.06 47.35-38.31 85.67-85.67 85.67z" /></clipPath><clipPath clipPathUnits="userSpaceOnUse" id="cp13"><path d="m863.33 228.67c-47.35 0-85.66-38.37-85.66-85.67c0-47.35 38.37-85.67 85.66-85.67c47.36 0 85.67 38.37 85.67 85.67c0.06 47.35-38.31 85.67-85.67 85.67z" /></clipPath><clipPath clipPathUnits="userSpaceOnUse" id="cp14"><path d="m863.33 228.67c-47.35 0-85.66-38.37-85.66-85.67c0-47.35 38.37-85.67 85.66-85.67c47.36 0 85.67 38.37 85.67 85.67c0.06 47.35-38.31 85.67-85.67 85.67z" /></clipPath><clipPath clipPathUnits="userSpaceOnUse" id="cp15"><path d="m682.17 361.33c-43.39 0-78.5-35.08-78.5-78.33c0-43.3 35.16-78.33 78.5-78.33c43.39 0 78.5 35.08 78.5 78.33c0.05 43.3-35.11 78.33-78.5 78.33z" /></clipPath><clipPath clipPathUnits="userSpaceOnUse" id="cp16"><path d="m682.17 361.33c-43.39 0-78.5-35.08-78.5-78.33c0-43.3 35.16-78.33 78.5-78.33c43.39 0 78.5 35.08 78.5 78.33c0.05 43.3-35.11 78.33-78.5 78.33z" /></clipPath><clipPath clipPathUnits="userSpaceOnUse" id="cp17"><path d="m682.17 361.33c-43.39 0-78.5-35.08-78.5-78.33c0-43.3 35.16-78.33 78.5-78.33c43.39 0 78.5 35.08 78.5 78.33c0.05 43.3-35.11 78.33-78.5 78.33z" /></clipPath><clipPath clipPathUnits="userSpaceOnUse" id="cp18"><path d="m682.17 361.33c-43.39 0-78.5-35.08-78.5-78.33c0-43.3 35.16-78.33 78.5-78.33c43.39 0 78.5 35.08 78.5 78.33c0.05 43.3-35.11 78.33-78.5 78.33z" /></clipPath><clipPath clipPathUnits="userSpaceOnUse" id="cp19"><path d="m682.17 361.33c-43.39 0-78.5-35.08-78.5-78.33c0-43.3 35.16-78.33 78.5-78.33c43.39 0 78.5 35.08 78.5 78.33c0.05 43.3-35.11 78.33-78.5 78.33z" /></clipPath><clipPath clipPathUnits="userSpaceOnUse" id="cp20"><path d="m682.17 361.33c-43.39 0-78.5-35.08-78.5-78.33c0-43.3 35.16-78.33 78.5-78.33c43.39 0 78.5 35.08 78.5 78.33c0.05 43.3-35.11 78.33-78.5 78.33z" /></clipPath><clipPath clipPathUnits="userSpaceOnUse" id="cp21"><path d="m879.18 461.67c-47.33 0-85.63-40.02-85.63-89.35c0-49.39 38.35-89.35 85.63-89.35c47.34 0 85.64 40.02 85.64 89.35c0.06 49.39-38.3 89.35-85.64 89.35z" /></clipPath><clipPath clipPathUnits="userSpaceOnUse" id="cp22"><path d="m879.18 461.67c-47.33 0-85.63-40.02-85.63-89.35c0-49.39 38.35-89.35 85.63-89.35c47.34 0 85.64 40.02 85.64 89.35c0.06 49.39-38.3 89.35-85.64 89.35z" /></clipPath><clipPath clipPathUnits="userSpaceOnUse" id="cp23"><path d="m879.18 461.67c-47.33 0-85.63-40.02-85.63-89.35c0-49.39 38.35-89.35 85.63-89.35c47.34 0 85.64 40.02 85.64 89.35c0.06 49.39-38.3 89.35-85.64 89.35z" /></clipPath><clipPath clipPathUnits="userSpaceOnUse" id="cp24"><path d="m879.18 461.67c-47.33 0-85.63-40.02-85.63-89.35c0-49.39 38.35-89.35 85.63-89.35c47.34 0 85.64 40.02 85.64 89.35c0.06 49.39-38.3 89.35-85.64 89.35z" /></clipPath><clipPath clipPathUnits="userSpaceOnUse" id="cp25"><path d="m879.18 461.67c-47.33 0-85.63-40.02-85.63-89.35c0-49.39 38.35-89.35 85.63-89.35c47.34 0 85.64 40.02 85.64 89.35c0.06 49.39-38.3 89.35-85.64 89.35z" /></clipPath><clipPath clipPathUnits="userSpaceOnUse" id="cp26"><path d="m879.18 461.67c-47.33 0-85.63-40.02-85.63-89.35c0-49.39 38.35-89.35 85.63-89.35c47.34 0 85.64 40.02 85.64 89.35c0.06 49.39-38.3 89.35-85.64 89.35z" /></clipPath></defs><style>tspan{white-space:pre}.t0{font-size: 140px;line-height: 140px;fill: #000000;font-weight: 700;font-family: "Poppins-Bold", "Poppins"}.t1{font-size: 54px;line-height: 76px;fill: #000000;font-weight: 400;font-family: "Inter-Regular", "Inter"}.t2{font-size: 54px;line-height: 76px;text-decoration: underline;fill: #25849a;font-weight: 700;font-family: "Inter-Bold", "Inter"}.t3{font-size: 54px;line-height: 76px;fill: #000000;font-weight: 700;font-family: "Inter-Bold", "Inter"}.t4{font-size: 54px;line-height: 76px;text-decoration: underline;fill: #0083ac;font-weight: 700;font-family: "Inter-Bold", "Inter"}.s5{fill:#6bd5e1}.s6{fill:#ffd9a0}.s7{fill:#ffffff}.s8{fill:none}.s9{fill:#626262}.s10{fill:#353535}.s11{fill:#fadfa6}.s12{fill:#b5e2dc}.s13{fill:#f7d3b5}.s14{fill:#efbda5}.s15{fill:none;stroke:#423232}.s16{opacity: .4;fill:#ed938a}.s17{fill:#6060d8}.s18{fill:none;stroke:#544d4d}.s19{fill:#423232}.s20{fill:#fe9dab}.s21{fill:#e5e5e5}.s22{fill:#f7c0b5}.s23{fill:#fee4bf}.s24{opacity: .4;fill:#f2a5b2}.s25{fill:#48d89e}.s26{fill:#fced7e}.s27{fill:none;stroke:#329369}.s28{fill:none;stroke:#ffde55}.s29{fill:#ffde55}.s30{fill:#ff6b57}.s31{fill:#b5e2c9}.s32{fill:#efbd9c}.s33{fill:#544646}.s34{fill:none;stroke:#ffffff}.s35{fill:#443f3f}.s36{fill:#e26076}.s37{fill:none;stroke:#443f3f}.s38{fill:#f4da92}.s39{fill:#bc8c89}.s40{fill:#ad5226}.s41{opacity: .4;fill:#884f25}.s42{fill:#bee3eb}.s43{opacity: .6;fill:#b7aea9}.s44{opacity: .3;fill:#dbc3ed}.s45{opacity: .2;fill:#c4add8}.s46{fill:none;stroke:#ffcb45}.t47{font-size: 60px;line-height: 84px;fill: #65b0c1;font-weight: 400;font-family: "Inter-Regular", "Inter"}.t48{font-size: 60px;line-height: 84px;fill: #65b0c1;font-weight: 700;font-family: "Inter-Bold", "Inter"}</style><g clip-path="url(#cp1)"><text style="transform: matrix(.333,0,0,.333,82.667,367.5)" ><tspan x="0" y="105" class="t0">Want your project </tspan><tspan x="0" y="245" class="t0">to be featured?
</tspan></text><text style="transform: matrix(.333,0,0,.333,82.667,628.833)" ><tspan x="0" y="105" class="t0">Help us add more </tspan><tspan x="0" y="245" class="t0">variants to the library...
</tspan></text><text style="transform: matrix(.333,0,0,.333,82.667,87.167)" ><tspan x="0" y="105" class="t0">License
</tspan></text><text style="opacity: .6;transform: matrix(.333,0,0,.333,82.667,481.112)" ><tspan x="0" y="40.5" class="t1">Please share with us in the comments or send to </tspan><tspan x="0" y="116.5" class="t1">anne@drawkit.com if you have projects that use this </tspan><tspan x="0" y="192.5" class="t1">template (or any other DrawKit illustrations) and we </tspan><tspan x="0" y="268.5" class="t1">would love to feature them in </tspan><tspan  y="268.5" class="t2">DrawKit.com</tspan><tspan  y="268.5" class="t1">
</tspan></text><text style="opacity: .6;transform: matrix(.333,0,0,.333,74,743.445)" ><tspan x="0" y="40.5" class="t1">Like, share and shout us out!
</tspan><tspan x="0" y="116.5" class="t1">Donate and support us as you see fit using this </tspan><tspan x="0" y="192.5" class="t1">link here
</tspan><tspan x="0" y="268.5" class="t1">Comment on what items you like to see
</tspan></text><text style="opacity: .6;transform: matrix(.333,0,0,.333,82.667,149.279)" ><tspan x="0" y="40.5" class="t1">You can use the avatar created for </tspan><tspan  y="40.5" class="t3">FREE for </tspan><tspan x="0" y="116.5" class="t3">personal or commercial project</tspan><tspan  y="116.5" class="t1">. Credit not </tspan><tspan x="0" y="192.5" class="t1">necessary but very much appreciated! Do </tspan><tspan x="0" y="268.5" class="t1">not redistribute this file without DrawKit’s </tspan><tspan x="0" y="344.5" class="t1">permission.
</tspan><tspan x="0" y="496.5" class="t4">Full license info here
</tspan></text><path class="s5" d="m107.4 927.5c0 5.7-4.6 10.2-10.2 10.2c-5.7 0-10.3-4.5-10.3-10.2c0-5.6 4.6-10.2 10.3-10.2c5.6 0 10.2 4.6 10.2 10.2z" /><path class="s6" d="m107.4 927.5c0 5.7-4.6 10.2-10.2 10.2q-1.1 0-2.2-0.2c4.6-1 8.1-5.1 8.1-10c0-4.9-3.5-8.9-8.1-9.9q1.1-0.3 2.2-0.3c5.6 0 10.2 4.6 10.2 10.2z" /><path class="s7" d="m92.9 917.3q1.1 0 2.2 0.3c-4.6 1-8.1 5-8.1 9.9c0 4.9 3.5 9 8.1 10q-1.1 0.2-2.2 0.2c-5.7 0-10.2-4.5-10.2-10.2c0-5.6 4.5-10.2 10.2-10.2z" /><path class="s8" d="m103.1 927.5c0 5.7-4.6 10.2-10.2 10.2v-20.4c5.6 0 10.2 4.6 10.2 10.2z" /><path fill-rule="evenodd" class="s9" d="m103.1 927.5c0 5.7-4.6 10.2-10.2 10.2c-5.7 0-10.2-4.5-10.2-10.2c0-5.6 4.5-10.2 10.2-10.2c5.6 0 10.2 4.6 10.2 10.2zm-10.2-9.3c-1.3 0-2.5 0.2-3.7 0.7c-2.2 1-4 2.8-5 5.1c-0.9 2.3-0.9 4.9 0.1 7.2c1 2.2 2.8 4.1 5.1 5c2.3 0.9 4.9 0.9 7.1 0c2-0.9 3.7-2.4 4.7-4.3c1-1.9 1.3-4.1 0.9-6.2c-0.5-2.1-1.6-4-3.3-5.4c-1.7-1.4-3.7-2.1-5.9-2.1z" /><path fill-rule="evenodd" class="s10" d="m112.6 922.8h3.7c2.8 0 4.4 2.1 4.4 4.9c0 2.7-1.6 4.8-4.4 4.8h-3.7zm3.7 7.9c1.7 0 2.5-1.5 2.5-3.1c0-1.7-0.8-3.1-2.5-3.1h-1.8v6.2z" /><path class="s10" d="m127 926l-0.4 1.7q-0.5-0.2-1-0.2c-0.9 0-1.5 0.9-1.5 2.7v2.3h-1.9v-6.6h1.8v1.4c0.4-1.1 1.1-1.5 2-1.5c0.3 0 0.7 0 1 0.2z" /><path fill-rule="evenodd" class="s10" d="m134.6 925.9v6.6h-1.9v-0.9c-0.4 0.7-1.3 1-2.1 1c-1.6 0-3.2-1.3-3.2-3.4c0-2.1 1.6-3.4 3.2-3.4c0.8 0 1.7 0.3 2.1 0.9v-0.8zm-1.9 3.3c0-1-0.8-1.7-1.6-1.7c-1 0-1.7 0.7-1.7 1.7c0 0.4 0.1 0.9 0.5 1.2c0.3 0.3 0.7 0.5 1.2 0.5c0.4 0 0.8-0.2 1.1-0.5c0.4-0.3 0.5-0.8 0.5-1.2z" /><path class="s10" d="m146 925.9l-2.3 6.6h-1.5l-1.4-4.3l-1.3 4.3h-1.6l-2.3-6.6h2l1.2 4l1.2-4h1.6l1.2 4l1.2-4z" /><path class="s10" d="m152.3 932.5l-3-3.4v3.4h-2v-9.7h2v3.3l2.3-3.3h2.5l-3.7 4.8l4.5 4.9z" /><path class="s10" d="m155.3 923.7c0-0.6 0.6-1.1 1.2-1.1c0.6 0 1.2 0.5 1.2 1.1c0 0.6-0.6 1.1-1.2 1.1c-0.6 0-1.2-0.5-1.2-1.1zm0.3 2.2h1.8v6.6h-1.8z" /><path class="s10" d="m163.1 927.4h-1.4v5.1h-1.8v-5.1h-1.2v-1.5h1.2v-2.4h1.8v2.4h1.4z" /><path class="s11" d="m983.5-174.8c9-5.1 20.4-1.9 25.5 7l169 296.5c5.1 9 2 20.4-6.9 25.5l-396 225.7c-9 5.1-20.4 2-25.5-7l-169-296.4c-5.1-9-2-20.4 6.9-25.5z" /><path class="s12" d="m571 57.7c-27.6 0-50-22.4-50-50c0-27.7 22.4-50 50-50c27.6 0 50 22.4 50 50c0 27.6-22.4 50-50 50z" /><g clip-path="url(#cp2)"><path class="s13" d="m619 72.9c-0.2 0.2-0.5 0.4-0.7 0.5c-0.3 0.2-0.5 0.4-0.8 0.5c-0.2 0.1-0.4 0.3-0.7 0.4c0 0 0 0-0.1 0.1q-1.1 0.7-2.3 1.3c-0.3 0.1-0.5 0.2-0.8 0.3c0 0 0 0.1 0 0.1q-0.4 0.2-0.8 0.4c-0.6 0.2-1.1 0.5-1.7 0.7c-0.2 0.1-0.5 0.2-0.8 0.3c-0.3 0.1-0.6 0.3-0.8 0.4c-0.3 0.1-0.6 0.2-0.9 0.3q0 0 0 0c-0.3 0.1-0.6 0.2-0.8 0.3c-0.6 0.2-1.3 0.4-1.9 0.6c-0.2 0.1-0.4 0.1-0.6 0.2q-1 0.3-1.9 0.5c-0.2 0.1-0.5 0.1-0.7 0.2c-0.6 0.1-1.3 0.2-1.9 0.4c-0.1 0-0.2 0-0.3 0c-0.2 0.1-0.5 0.1-0.7 0.1c-0.3 0.1-0.5 0.1-0.8 0.2c-0.2 0-0.3 0-0.4 0q-0.3 0.1-0.6 0.1c-0.5 0.1-1.1 0.1-1.6 0.2c-0.2 0-0.4 0-0.6 0.1c-0.2 0-0.5 0-0.7 0q-0.4 0.1-0.7 0.1c-0.1 0-0.3 0-0.4 0c-0.3 0-0.5 0-0.8 0c-0.3 0-0.6 0.1-0.9 0.1c-0.4 0-0.7 0-1 0q-0.4 0-0.7 0c-14-0.2-26.7-6.2-35.7-15.7c0 0 0 0 0 0c1-2 4.8-5.7 8.8-8.7c5.1-3.9 12.3-6.2 12.3-6.2c0 0 4.7-0.8 22.1 2.8c13.3 2.8 19 14.2 20.9 19.4z" /><path class="s13" d="m601.8 62.8c-0.7 3.4-5.2 5.4-12.9 2.4c-9.3-3.8-12.9-14.5-12.9-14.5c-0.5-7.7-1.7-14.3-1.7-14.3c10.8-0.9 23.6 11.8 23.6 11.8l1.5 6.2c0.1 0.6 0.4 1 0.8 1.4c0.7 1.2 2.1 4.8 1.6 7z" /><path class="s14" d="m600.2 55.8c-6.4-0.3-11.1-1.3-16.1-10.3c4.3 3.8 9.3 5.2 14.6 5.9l0.7 3q0.2 0.9 0.8 1.4z" /><path class="s13" d="m613.4 15.6c0.6 2.8 0.9 5.1-0.8 12.6c-1.6 7.4 1.5 14.9-6.3 21.7c-5.3 4.6-14.6 5.5-22 0.5c-2.5-1.7-4.8-4.1-6.7-7.2c-1.4-2.4-3.1-4.7-5-6.8c-2.7-2.9-5.8-8.7-4.3-18.9c2.6-16.6 19-18.5 28.7-16.6c9.7 1.8 14.7 7.3 16.4 14.7z" /><path class="s13" d="m579.4 37.7c-9.5-2.8-8-12.9-3.8-13.4c4.8-0.6 5.9 4.4 5.9 4.4" /><path class="s15" d="m575.2 29.8c-0.1-0.3 0.3-2.4 2.1-1.6c0.8 0.3 1 1.2 0.8 2.8c-0.2 1.3 1 2.1 1 2.1" /><path class="s14" d="m601.1 34.3c0.4-0.8 6.4-1.8 6.8-1.4c0.4 0.3-0.2 1.3-0.9 2.1c-1.2 1.4-2.4 1.3-2.4 1.3c-1.6 0-3.9-1.2-3.5-2z" /><path class="s15" d="m605.6 25.1c0 0 0 3.2 2.1 6.7c0.9 1.6-0.5 4.2-3.5 4.6" /><path class="s16" d="m590.9 35.2c0 1.6-1.5 2.8-3.4 2.8c-1.9 0-3.4-1.2-3.4-2.8c0-1.6 1.5-2.8 3.4-2.8c1.9 0 3.4 1.2 3.4 2.8z" /><path class="s16" d="m612.1 32.4c-0.1 1.9-0.1 3.7-0.2 5.6c-1.5-0.4-2.5-1.5-2.5-2.8c0-1.4 1.1-2.5 2.7-2.8z" /></g><g clip-path="url(#cp3)"><path class="s17" d="m615.5 145.3h-86.2c0 0-0.5-6.7 2.7-17.6c2.5-8.4 10-13.1 14.9-16.2c-0.3-3.4 0.7-7.7 3.5-11.9c2.3-3.4 6.5-5 10.1-5.8c0.3 2.4 0.6 5.4 0.8 8.6c0 0 1.3 5.9 12.9 11.1c5.9 2.7 9.4 1.5 10.3-1.1c1-3.2 0.4-5.7 0.2-6.2l-0.2-1.1c1.8-0.4 3.6-1.1 5.1-2c1 1.8 1.6 3.6 2 5.3c4 1.5 11.3 4 16.1 10.1c6.4 8.3 7.7 26.9 7.8 26.8z" /><path class="s15" d="m567.1 120.9c-8.9-5.4-10.9-13.3-10.9-13.3" /><path class="s15" d="m588.7 123.3c5.2-4.7 2.8-14.9 2.8-14.9" /><path class="s15" d="m574.2 130.3c-0.5-3.5 1.3-8.6 1.3-8.6" /><path class="s15" d="m588.3 128.8c-0.9-4.5-2.2-7.4-2.2-7.4" /><path class="s15" d="m565.8 125.9c-16.3-3.2-19-14.4-19-14.4" /><path class="s7" d="m574.5 131.1l-1.5-0.2c-0.5 0-0.9-0.5-0.8-1.1l0.5-2.5c0.1-0.7 0.8-1.2 1.5-1.1c0.7 0.1 1.3 0.7 1.3 1.4v2.6c0 0.5-0.5 0.9-1 0.9z" /><path class="s7" d="m589.8 129.5l-1.4 0.5c-0.5 0.2-1.1-0.1-1.2-0.6l-0.6-2.5c-0.2-0.7 0.2-1.4 0.9-1.7c0.7-0.2 1.4 0.1 1.7 0.7l1.1 2.3c0.3 0.5 0 1.1-0.5 1.3z" /><path class="s18" d="m544.4 135.9c1 2 1.3 9.5 1.3 9.5" /><path class="s18" d="m605.6 145.4c0.8-6.2-1.1-16.6-1.1-16.6" /><path class="s18" d="m589.9 139.4c4.3 0.2 9.2-0.6 9.2-0.6" /></g><g clip-path="url(#cp4)"><path class="s19" d="m630.5 48.5c-0.8 0-1.4-0.7-1.3-1.5v-0.9c0-0.8 0.7-1.4 1.5-1.4c0.8 0.1 1.4 0.7 1.3 1.5v1c0 0.7-0.7 1.3-1.5 1.3z" /><path class="s19" d="m644.5 49c-0.7 0-1.3-0.7-1.2-1.4v-0.9c0-0.7 0.7-1.3 1.4-1.2c0.7 0 1.3 0.6 1.3 1.4l-0.1 0.8c0 0.8-0.6 1.3-1.4 1.3z" /><path class="s15" d="m628.6 46.2c0.2-0.7 1.5-1.3 2.8-1.1c1.5 0.2 2.3 1.5 2.3 1.5" /><path class="s15" d="m643.6 46.9c0 0 0-1.1 1.5-1.1c1.3 0 1.8 1.2 1.8 1.2" /><path class="s19" d="m628.2 38.4c2.5-1.2 6.6-0.4 7.6 0.5c0.3 0.3 0.5 0.7 0.6 1.1c0.1 0.8-0.6 1.4-1.3 1.2c-3.2-1.1-9.1-1.7-6.9-2.8z" /><path class="s19" d="m645.1 41.7c-0.6 0.2-1.2-0.4-1.1-1.1c0-0.3 0.2-0.7 0.4-1c0.8-0.8 3.6-1.4 5.3-0.2c1.5 1.1-2 1.4-4.6 2.3z" /></g><g clip-path="url(#cp5)"><path class="s19" d="m645.5 85.2c0 0.5-0.4 1.5-1.1 2.1c-3.8-2.3-5.5-1.1-5.5-1.1c-1.3-2-1-4.8 2.2-2.7c2.3 1.5 3.6 1.7 4.4 1.7z" /><path class="s20" d="m644.4 87.3c-0.8 0.7-2 1.2-3.7 0.5c-0.7-0.3-1.3-0.9-1.8-1.6c0 0 1.7-1.2 5.5 1.1z" /><path class="s15" d="m645.5 85.2c0 1.1-1.6 3.9-4.8 2.6c-3-1.2-3.9-7 0.4-4.3c3.6 2.3 5 1.6 5 1.6" /><path class="s15" d="m644.4 87.3c-3.8-2.3-5.5-1.1-5.5-1.1" /></g><g clip-path="url(#cp6)"><path class="s19" d="m605.7 8.2c-2.4 8.6-9.2 7.1-15.7 4.8c-8.5-3.1-16.1-0.6-16.1 7.1c-0.1 11.4-2.9 7.9-3.2 7.5c-0.7-1.4-2.3-3.1-5.3-2.8c-3.9 0.5-5.4 9.1 1.9 12.7c1.2 6.4-2.2 5.8-2.2 5.8c-1.2-4.7-11-14.8-11-21.4c0-9 4.5-11.5 4.5-11.5c0.1-6.2 6.6-13.1 17.5-12.9c11 0.2 17.7-0.1 19.8-2.6c2.1-2.7 12.2 4.7 9.8 13.3z" /><path class="s19" d="m606 18.5c-0.4 2.2-1.3 3.8-2.6 5.1c0.5-3.7 0.2-5.4-0.2-7.4c-0.9-4.2-2.9-7.8-6.3-10.5c1.7-0.1 3.4 0.3 4.9 1.2c0 0 5.5 2.2 4.2 11.6z" /></g><g clip-path="url(#cp7)"><path class="s7" d="m594 66.4c0 0-1 0.9-1 1.9c0 0.6-0.4 1.3-0.7 1.8c-0.2 0.4-0.6 0.6-1 0.4c-0.3-0.1-0.6-0.4-0.5-0.8c0-0.5 0-1.6-0.1-3.5c-0.2-3.7 2.5-3.3 2.5-3.3c-0.1 2.6 0.8 3.5 0.8 3.5z" /><path class="s7" d="m601.2 127.2c-0.2-0.3-10.7-18.2-9.1-25c1-4.6-0.4-9.9-1.6-14.6c-0.5-2-1-3.8-1.2-5.4c-0.5-2.7-0.2-5.4 1-7.8c1.2-2.7 1-5.1 1-5.1l0.7-0.1c0 0.1 0.2 2.6-1.1 5.5c-1.1 2.3-1.4 4.8-1 7.4c0.3 1.6 0.8 3.4 1.3 5.3c1.2 4.8 2.6 10.2 1.5 15c-1.4 6.4 9 24.3 9.1 24.4z" /><path class="s21" d="m593 68.1c0 0.1 0 0.1 0 0.2c0 0.6-0.3 1.3-0.6 1.8c-0.2 0.4-0.7 0.6-1.1 0.4c-0.3-0.1-0.5-0.4-0.5-0.8c0-0.3 0-0.8 0-1.5c0.7 0.4 1.5 0.2 2.2-0.1z" /><path class="s7" d="m622.2 90.3c-0.3 1.6-0.3 4-0.4 6.8c-0.1 5.5-3.3 26.8-4.9 30.2l-0.6-0.3c1.5-3.3 4.8-24.5 4.9-29.9c0-2.8 0.1-5.3 0.3-6.9c0.5-3.3 0.1-5.9-0.1-6.9c0.1-0.1 0.2-0.2 0.3-0.3c0.1-0.1 0.2-0.2 0.3-0.2c0.2 0.8 0.8 3.6 0.2 7.5z" /></g><path class="s22" d="m827.7 157.3c-27.7 0-50-22.4-50-50c0-27.6 22.4-50 50-50c27.6 0 50 22.4 50 50c0 27.7-22.4 50-50 50z" /><g clip-path="url(#cp8)"><path class="s23" d="m867.8 163.3c-0.2 0.2-0.5 0.4-0.7 0.5c-0.3 0.2-0.5 0.4-0.8 0.5c-0.2 0.1-0.4 0.3-0.7 0.4c0 0 0 0-0.1 0.1q-1.1 0.7-2.4 1.3c-0.2 0.1-0.4 0.2-0.7 0.3c0 0 0 0.1 0 0.1q-0.4 0.2-0.9 0.4c-0.5 0.2-1 0.5-1.6 0.7c-0.3 0.1-0.5 0.2-0.8 0.3c-0.3 0.1-0.6 0.3-0.8 0.4c-0.3 0.1-0.6 0.2-0.9 0.3q0 0 0 0c-0.3 0.1-0.6 0.2-0.8 0.3c-0.7 0.2-1.3 0.4-1.9 0.6c-0.2 0.1-0.4 0.1-0.6 0.2q-1 0.3-1.9 0.5c-0.2 0.1-0.5 0.1-0.7 0.2c-0.7 0.1-1.3 0.2-1.9 0.4c-0.1 0-0.2 0-0.3 0c-0.2 0.1-0.5 0.1-0.7 0.1c-0.3 0.1-0.6 0.1-0.8 0.2c-0.2 0-0.3 0-0.5 0q-0.2 0.1-0.5 0.1c-0.5 0.1-1.1 0.1-1.6 0.2c-0.2 0-0.4 0-0.6 0.1c-0.2 0-0.5 0-0.7 0q-0.4 0.1-0.7 0.1c-0.1 0-0.3 0-0.4 0c-0.3 0-0.5 0-0.8 0c-0.3 0-0.6 0.1-1 0.1c-0.3 0-0.6 0-0.9 0q-0.4 0-0.7 0c-14-0.2-26.7-6.2-35.7-15.7c0 0 0 0 0 0c1-2 4.8-5.7 8.8-8.7c5.1-3.9 12.2-6.2 12.2-6.2c0 0 4.8-0.8 22.2 2.8c13.3 2.8 19 14.2 20.9 19.4z" /><path class="s23" d="m850.6 153.2c-0.7 3.4-5.2 5.4-12.9 2.4c-9.3-3.8-13-14.5-13-14.5c-0.5-7.7-1.6-14.3-1.6-14.3c10.8-0.9 23.6 11.8 23.6 11.8l1.5 6.2c0.1 0.6 0.4 1 0.8 1.4c0.7 1.2 2 4.8 1.6 7z" /><path class="s14" d="m849 146.2c-6.4-0.3-11.1-1.3-16.1-10.3c4.3 3.8 9.3 5.2 14.6 5.9l0.7 3q0.2 0.9 0.8 1.4z" /><path class="s23" d="m862.2 106c0.6 2.8 0.9 5.1-0.8 12.6c-1.6 7.4 1.5 14.9-6.4 21.7c-5.2 4.6-14.5 5.5-21.9 0.5c-2.5-1.7-4.8-4.1-6.7-7.2c-1.5-2.4-3.1-4.7-5-6.8c-2.7-2.9-5.8-8.7-4.3-18.9c2.6-16.6 19-18.5 28.7-16.6c9.7 1.8 14.7 7.3 16.4 14.7z" /><path class="s23" d="m828.2 128.1c-9.5-2.8-8-12.9-3.8-13.4c4.8-0.6 5.9 4.4 5.9 4.4" /><path class="s15" d="m824 120.2c-0.1-0.3 0.3-2.4 2.1-1.6c0.7 0.3 0.9 1.2 0.7 2.8c-0.1 1.3 1.1 2.1 1.1 2.1" /><path class="s14" d="m849.9 124.7c0.4-0.8 6.4-1.8 6.8-1.4c0.4 0.3-0.2 1.3-0.9 2.1c-1.2 1.4-2.4 1.3-2.4 1.3c-1.6 0-3.9-1.2-3.5-2z" /><path class="s15" d="m854.3 115.5c0 0 0.1 3.2 2.1 6.7c0.9 1.6-0.4 4.2-3.4 4.6" /><path class="s24" d="m839.7 125.6c0 1.6-1.5 2.8-3.4 2.8c-1.9 0-3.5-1.2-3.5-2.8c0-1.6 1.6-2.8 3.5-2.8c1.9 0 3.4 1.2 3.4 2.8z" /><path class="s24" d="m860.9 122.8c-0.1 1.9-0.1 3.7-0.2 5.6c-1.5-0.4-2.5-1.5-2.5-2.8c0-1.4 1.1-2.5 2.7-2.8z" /></g><g clip-path="url(#cp9)"><path class="s25" d="m844.5 172.6v1.9c2.8 1.3 12.6 6.2 17.7 12.3c5.1 6.1 7.4 24.7 7.4 24.7h-81.4c0 0-2.3-15 3-25.7q1-2.1 2.3-3.7c1.9-2.3 4.1-4 6.4-5.3c3-1.7 5.9-2.5 7.9-3.1c1.3-0.3 2.1-0.6 2.4-0.8c1.3-0.9 1.2-4.3 2-6c0.9-1.7 3.1-1.7 3.1-1.7c0 0 6.7 6 13.7 8.2c6.9 2.3 11.9 0.8 11.9 0.8c1.8-0.5 3.6-1.6 3.6-1.6z" /><g clip-path="url(#cp10)"><path class="s26" d="m804.8 183.4c0 2-1.6 3.6-3.5 3.6c-2 0-3.5-1.6-3.5-3.6c0-1.9 1.5-3.5 3.5-3.5c1.9 0 3.5 1.6 3.5 3.5z" /><path class="s26" d="m824.9 181.8c0 2-1.6 3.5-3.5 3.5c-2 0-3.5-1.5-3.5-3.5c0-1.9 1.5-3.5 3.5-3.5c1.9 0 3.5 1.6 3.5 3.5z" /><path class="s26" d="m840.1 174.3c0 2-1.6 3.5-3.5 3.5c-2 0-3.5-1.5-3.5-3.5c0-1.9 1.5-3.5 3.5-3.5c1.9 0 3.5 1.6 3.5 3.5z" /><path class="s26" d="m818.7 199.1c0 2-1.6 3.5-3.6 3.5c-1.9 0-3.5-1.5-3.5-3.5c0-1.9 1.6-3.5 3.5-3.5c2 0 3.6 1.6 3.6 3.5z" /><path class="s26" d="m859.8 197.3c0 2-1.6 3.5-3.5 3.5c-2 0-3.6-1.5-3.6-3.5c0-1.9 1.6-3.5 3.6-3.5c1.9 0 3.5 1.6 3.5 3.5z" /><path class="s26" d="m840.3 194.4c0 2-1.6 3.6-3.5 3.6c-2 0-3.5-1.6-3.5-3.6c0-1.9 1.5-3.5 3.5-3.5c1.9 0 3.5 1.6 3.5 3.5z" /><path class="s26" d="m857.1 180.1c0 2-1.6 3.5-3.6 3.5c-1.9 0-3.5-1.5-3.5-3.5c0-1.9 1.6-3.5 3.5-3.5c2 0 3.6 1.6 3.6 3.5z" /></g><path class="s27" d="m844.5 174.5c0 0 0.4 3-0.3 4.7c-1.3 2.8-9.8 6-20.2 2.3c-8.2-3-12.3-7.1-12.4-7.7" /><path class="s27" d="m816.8 172.9c0 0 0.1-2.4 0.6-3.5q0.2-0.5 0.5-0.8" /><path class="s27" d="m822.8 176.5c0 0 0.2-2.7 0.4-3.6c0-0.3 0.2-0.6 0.3-0.9" /><path class="s27" d="m829 178.7c0 0-0.1-2.9 0-3.3q0.1-0.6 0.2-1" /><path class="s27" d="m835.2 178.8c0.1-1.3 0.1-2.3 0-3.1" /><path class="s27" d="m840.6 178c-0.1-1.1-0.2-1.9-0.3-2.6" /><path class="s27" d="m812 168.8c0.4-2.4 1.4-3.2 2.2-3.5" /><path class="s27" d="m848.4 176.5c-1.7-1-3.1-1.6-3.9-2v-1.9" /></g><g clip-path="url(#cp11)"><path class="s19" d="m861.9 122.2c2.2-1.6 6.4-1.6 7.5-0.9c0.4 0.3 0.6 0.6 0.8 1c0.2 0.8-0.3 1.5-1.1 1.4c-3.3-0.4-9.1-0.1-7.2-1.5z" /><path class="s19" d="m878.3 124.1c-0.6 0-1-0.8-0.7-1.4c0.2-0.3 0.4-0.6 0.7-0.8c1-0.5 3.8-0.2 5 1.5c1.1 1.5-2.3 0.7-5 0.7z" /><path class="s15" d="m862.5 127.7c0 0 3.4-0.8 5.5 0.2" /><path class="s15" d="m877 128.4c3.1-0.7 4 0.2 4 0.2" /></g><g clip-path="url(#cp12)"><path class="s15" d="m877.9 157.7c-0.9 0.4-1.3-0.3-2.6 0.3c-0.9 0.4-1.4 0.6-2.5-0.1c-0.8-0.5-1.7 0.2-2.5-1.1" /></g><g clip-path="url(#cp13)"><path class="s19" d="m853.3 153.7c-5.4-1.7-6.4-5.3-8.8-5.6c-2.4-0.2-3.5-1.8-2.8-4.1c2.7-0.5 5.2-1.7 7.1-3.4c4.4-3.8 5.4-7.8 5.7-11.9c0.1-1.9 0.1-3.7 0.2-5.6c0.1-1.4 0.2-2.8 0.5-4.2c-0.1 0.5 0.2 4.2 3.5 7.5c3.4 3.5 5.1 6.1 3.8 9.8c-1.3 3.8 0.1 3.2 2 7.3c1.8 4.2-3.1 12.8-11.2 10.2z" /><path class="s19" d="m835 112.5c-7.3 11.9-11 6.7-11 6.7c-0.2-1-1.6-4.8-5.8-4.2c-4.1 0.5-5.6 9.8 2.7 13c0 0 5.4 2.7 3.1 8.8c-0.4 1.2-1.9 3.5-1.9 3.5c0 0 3.7 7.5 0.7 11.3c-1.4 1.8-5 3.9-12.3-0.7c-4.9-3.1-9.6 2.6-12.3-0.2c-5.1-5.4 3.7-11.4 1-12.2c-6.4-2.1-6.9-12.2 2.2-16.1c7.9-3.3 7.6-8.3 7.3-12.9c-1.3-21.2 15.3-24.6 31.4-21c4.1 0.9 7.3-1.5 9.8-0.9c7 1.5 7.6 7.6 6.8 8.8c11.3 6.4-1.1 21.6-0.9 19.4c0.2-3.8 0.2-5.2 0-5.7c-0.1-0.5-1-8.2-4.9-7.6c-0.3 0.7-0.9 1.1-1.6 0.7c-3.2-1.7-7.1-2.6-14.3 9.3z" /></g><g clip-path="url(#cp14)"><path class="s28" d="m834.9 151v-5.7" /><path class="s29" d="m839.4 158.6c-0.9 0.9-2.1 1.5-3.5 1.5c-2.7 0-5-2.2-5-5c0-2.7 2.2-4.9 5-4.9c1.3 0 2.6 0.6 3.5 1.5c-0.6-0.4-1.3-0.6-2-0.6c-2.2 0-4 1.8-4 4c0 2.2 1.8 4 4 4c0.7 0.1 1.4-0.1 2-0.5z" /><path class="s30" d="m836.9 155.2c0 1.1-0.9 1.9-2 1.9c-1.1 0-2-0.8-2-1.9c0-1.1 0.9-2 2-2c1.1 0 2 0.9 2 2z" /><path class="s29" d="m872.9 151.7c-0.6-0.3-1.2-0.5-2-0.5c-0.5 0-1 0.1-1.4 0.3c0-0.4 0.1-0.8 0.2-1.2c1.3 0 2.4 0.6 3.2 1.4z" /><path class="s29" d="m873 158.6c-0.9 0.9-2.2 1.5-3.6 1.5c-1.4 0-2.7-0.6-3.6-1.6q0.8-0.9 1.5-1.8c0.6 1.4 2 2.4 3.6 2.4c0.8 0.1 1.5-0.1 2.1-0.5z" /><path class="s30" d="m870.4 155.2c0 1.1-0.8 1.9-1.9 1.9q-0.7 0-1.2-0.4c0.8-1.1 1.3-2.3 1.7-3.4c0.8 0.2 1.4 1 1.4 1.9z" /></g><path class="s31" d="m653.7 304.7c-27.7 0-50-22.4-50-50c0-27.7 22.4-50 50-50c27.6 0 50 22.4 50 50c0 27.6-22.4 50-50 50z" /><g clip-path="url(#cp15)"><path class="s23" d="m691.2 307.8c-0.3 0.2-0.5 0.3-0.8 0.5c-0.2 0.2-0.5 0.3-0.7 0.5c-0.3 0.1-0.5 0.2-0.7 0.4c0 0-0.1 0-0.1 0q-1.1 0.7-2.4 1.3c-0.2 0.2-0.5 0.3-0.7 0.4c0 0 0 0-0.1 0q-0.4 0.2-0.8 0.4c-0.5 0.3-1.1 0.5-1.6 0.8c-0.3 0.1-0.6 0.2-0.8 0.3c-0.3 0.1-0.6 0.2-0.9 0.3c-0.2 0.1-0.5 0.3-0.8 0.4q0 0 0 0c-0.3 0.1-0.6 0.2-0.9 0.3c-0.6 0.2-1.2 0.4-1.8 0.6c-0.2 0-0.4 0.1-0.6 0.2q-1 0.3-1.9 0.5c-0.3 0-0.5 0.1-0.8 0.1c-0.6 0.2-1.2 0.3-1.8 0.4c-0.1 0.1-0.2 0.1-0.4 0.1c-0.2 0-0.4 0.1-0.6 0.1c-0.3 0-0.6 0.1-0.9 0.1c-0.1 0.1-0.2 0.1-0.4 0.1q-0.2 0.1-0.5 0.1c-0.6 0-1.1 0.1-1.7 0.2c-0.1 0-0.3 0-0.5 0c-0.3 0.1-0.5 0.1-0.7 0.1q-0.4 0-0.7 0c-0.2 0-0.3 0.1-0.5 0.1c-0.2 0-0.5 0-0.7 0c-0.3 0-0.6 0-1 0c-0.3 0-0.6 0-0.9 0q-0.4 0-0.7 0c-14.1-0.2-26.7-6.1-35.7-15.6c0 0 0 0-0.1 0c1.1-2.1 4.9-5.7 8.9-8.8c5.1-3.8 12.2-6.2 12.2-6.2c0 0 4.7-0.7 22.2 2.9c13.3 2.8 18.9 14.2 20.9 19.4z" /><path class="s23" d="m674 297.6c-0.7 3.5-5.3 5.5-12.9 2.4c-9.4-3.8-13-14.5-13-14.5c-0.5-7.6-1.6-14.2-1.6-14.2c10.8-0.9 23.6 11.7 23.6 11.7l1.5 6.3c0.1 0.5 0.4 1 0.8 1.3c0.7 1.2 2 4.8 1.6 7z" /><path class="s32" d="m672.4 290.7c-6.4-0.4-11.1-1.3-16.1-10.3c4.2 3.7 9.3 5.2 14.6 5.8l0.7 3.1q0.2 0.9 0.8 1.4z" /><path class="s23" d="m685.5 250.5c0.6 2.8 0.9 5.1-0.7 12.5c-1.6 7.5 1.5 15-6.4 21.8c-5.3 4.6-14.5 5.5-21.9 0.4c-2.5-1.7-4.8-4-6.7-7.1c-1.5-2.5-3.2-4.8-5.1-6.9c-2.6-2.8-5.8-8.6-4.2-18.8c2.5-16.6 19-18.5 28.7-16.7c9.7 1.9 14.7 7.4 16.3 14.8z" /><path class="s23" d="m651.6 272.5c-9.5-2.8-8.1-12.8-3.9-13.4c4.9-0.6 5.9 4.4 5.9 4.4" /><path class="s15" d="m647.4 264.7c-0.1-0.3 0.3-2.4 2.1-1.7c0.7 0.3 0.9 1.3 0.7 2.9c-0.1 1.3 1.1 2.1 1.1 2.1" /><path class="s32" d="m673.3 269.1c0.4-0.8 6.4-1.7 6.8-1.4c0.3 0.3-0.2 1.3-0.9 2.1c-1.2 1.5-2.5 1.4-2.5 1.4c-1.5 0-3.8-1.3-3.4-2.1z" /><path class="s15" d="m677.7 260c0 0 0.1 3.2 2.1 6.7c0.9 1.6-0.4 4.1-3.4 4.6" /><path class="s19" d="m683 278.5q0 0.1 0 0q-0.1 0.1 0 0c-0.9 2.2-2.2 4.2-4.6 6.3c-5.3 4.6-14.5 5.4-21.9 0.4q-1.3-0.8-2.4-1.9q-0.8-1-1.4-2.1c-2.4-4.5-1.4-8.7-1.4-8.7c0 0 1.4 0 3 3.2c1.4 2.7 6.6 2.6 8.8-2.4c2.4-5.6 8.4-3.1 9.8-2.6c1.3 0.5 3.5 0.5 3.5 0.5c5.4 0 3.7 3.6 4.3 5.6c0.8 2.7 2.3 1.7 2.3 1.7z" /></g><g clip-path="url(#cp16)"><path class="s33" d="m636.2 304.1c0 0 3.1-0.7 4.4-0.8l0.4 3.6c0 0-4.8-1.8-4.8-2.8z" /><path class="s33" d="m695.3 353h-84.2c0 0 0.5-15.4 5.5-26.5c5-10.6 18.4-15.3 24.6-16.9c0 0.2 0 0.3 0 0.5c0 0 3.6 10.7 13 14.5c7.6 3.1 12.2 1 12.9-2.4c0.4-2.2-1-5.8-1.7-7c-0.4-0.3-0.6-0.8-0.8-1.3l-0.2-1.1q1.2-0.2 2.4-0.7c4.3 1.1 10.7 3.8 18.4 10.2c8.6 7.2 10.1 30.7 10.1 30.7z" /><path class="s34" d="m626.1 340.7l1.5 12.3" /><path class="s34" d="m685 353c1.2-5.7 0.4-9.2 0.1-11.7c-0.3-2.4 0.7-4.8 0.7-4.8" /><path class="s33" d="m651.6 330.8c-18.4-5.3-23-16.2-23-16.2c0 0 2.9-1.8 4.2-3.6c0.9-1.2 8.4-2.5 8.4-2.5c0.1 1.5 0 0 0.1 1.6c0 0 3.6 10.7 12.9 14.5c7.7 3.1 12.2 1 12.9-2.4c0.4-2.2-0.9-5.8-1.6-7c-0.4-0.3-0.7-0.8-0.8-1.3l-0.3-1.1c1.9-0.4 3.7-1.1 5.3-2.1q0.1 0.2 0.1 0.3c0.7 1.7 2.8 3.2 2.8 3.2c4.5 10.6-2.2 22-21 16.6z" /><path class="s33" d="m677.9 317.1c0 0 1.6-0.7 3.1-0.6c1.5 0.2 8.8 6.1 9.5 7.3c0.8 1.3 0.7 5.2-0.1 5.7c-0.9 0.5-1.4-0.6-1.4-0.6c0 0 0.6-3.6-0.1-4.3c-0.7-0.6-7.4-6.3-7.7-6.3c-0.2-0.1-1.5 1-1.5 1z" /><path class="s33" d="m626.8 318.9c0 0-3.2-1.4-3.7-1.4c-0.6 0-5.9 4.8-6.2 6.2c-0.4 1.4 0.7 4.9 0.7 4.9l-1.5 2.4c0 0-2.1-4.7-1.5-7.2c0.6-2.6 7.4-8.4 8.7-8.6c1.3-0.2 4.3 1.1 4.3 1.1z" /><path class="s35" d="m669.4 321.2c1.4 6.9 2 18.6-7.7 15.1c-10.7-3.8-17.1-12-20.3-18.1c8.7 5.2 18.4 5.1 28 3z" /><path class="s36" d="m641.5 318.2c-1.5-2.9-2.3-5.3-2.5-6.6c-0.4-3.1 2-4.4 2-4.4q0.2 1.4 0.3 2.9c0 0 1.9 5.8 6.7 10.4c-1.3-3.2-1.5-5.9 1.2-5.7c0 0 9 3.8 16.5 0.9q-0.1-0.3-0.2-0.5c-0.4-0.3-0.7-0.8-0.8-1.3l-0.3-1.1q0.7-0.2 1.3-0.4c0.9 1.2 1.9 2.8 2.6 4.6c0.3 0.9 0.7 2.4 1.1 4.2c-9.6 2.1-19.3 2.2-27.9-3z" /><path class="s33" d="m636.2 304.1c0 0 7.8 3.6 14 5.3c0.6 0.2 1.1 0.7 1.2 1.3c0.2 2.3 0.8 7.6 1.4 9.6c0.7 2.7 14.2 16.1 14.4 17.8c0.1 1.7-13.7 1.3-22-8.6c-8.2-9.9-7.6-11.7-7.6-11.7c0 0-1.4-9.4-1.4-13.7z" /><path class="s33" d="m673.2 307.7l2.1 0.9c0.7 0.3 1 1 0.8 1.7c-1 3-3.4 10.3-3.5 12.8c-0.1 3.2-6.7 23.8-6.7 23.8c0 0-4.1-5.3-1.1-10.6c2.3-4.1 2.5-12.9 2.2-14.1c-0.3-1.5-1.5-5.1-2.2-7.4c-0.4-1.2-0.5-2-0.5-2c0 0 4.6-0.8 8.9-5.1z" /><path class="s7" d="m649.3 312.1c0 0.6-0.4 1.1-0.9 1.1c-0.6 0-1-0.5-1-1.1c0-0.6 0.4-1.1 1-1.1c0.5 0 0.9 0.5 0.9 1.1z" /><path class="s37" d="m663.8 333.5c-2.5-2.6-9.3-8.8-11.3-10.1q-1.8-1.2-3.9-1.9c-8.7-2.8-11.5-7.3-11.5-7.3l-0.4-3.2" /><path class="s37" d="m665.5 348.9c0 0-0.3-5.7-0.6-7.7c-0.4-1.9 0.4-5.9 0.4-5.9" /><path class="s37" d="m674.5 315.2c0 0-1.6 5.8-2.4 8c-0.8 2.3-4.4 6.8-5.4 9" /><path class="s7" d="m671.3 333.8c0 0.6-0.5 1.1-1.1 1.1c-0.6 0-1.1-0.5-1.1-1.1c0-0.6 0.5-1.1 1.1-1.1c0.6 0 1.1 0.5 1.1 1.1z" /></g><g clip-path="url(#cp17)"><path class="s15" d="m681.2 268.6c2.4 1.8 4.7 1.8 4.7 1.8" /><path class="s15" d="m698.9 269.5c-0.7 1-3.1 1.4-3.1 1.4" /><path class="s19" d="m681.3 263.7c2.7-0.7 6.6 0.9 7.4 2c0.2 0.4 0.3 0.8 0.3 1.2c0 0.8-0.8 1.3-1.5 0.9c-2.9-1.7-8.6-3.5-6.2-4.1z" /><path class="s19" d="m697.8 268.2c-0.5 0.4-1.3-0.1-1.4-0.8c0-0.3 0-0.7 0.2-1.1c0.5-1 3-2.3 5-1.7c1.7 0.7-1.6 2-3.8 3.6z" /><path class="s19" d="m684.5 270.3q0 0 0 0.1v0.9c0 0.8-0.7 1.4-1.5 1.3c-0.8 0-1.4-0.7-1.3-1.5v-0.9c0-0.4 0.2-0.7 0.5-1c0.7 0.6 1.5 1 2.3 1.1z" /><path class="s19" d="m698.2 270.2c0.2 0.2 0.3 0.5 0.3 0.8v0.9c-0.1 0.7-0.7 1.3-1.4 1.3c-0.8-0.1-1.3-0.7-1.3-1.4v-0.9c0 0 0 0 0-0.1c0.9-0.1 1.7-0.2 2.4-0.6z" /></g><g clip-path="url(#cp18)"><path class="s19" d="m695.4 296.5c0 0.5-0.4 1.5-1.1 2.1c-3.8-2.3-5.5-1.1-5.5-1.1c-1.3-2-1-4.8 2.2-2.7c2.3 1.5 3.6 1.7 4.4 1.7z" /><path class="s20" d="m694.3 298.6c-0.8 0.7-2 1.2-3.7 0.5c-0.7-0.3-1.3-0.9-1.8-1.6c0 0 1.7-1.2 5.5 1.1z" /><path class="s15" d="m695.4 296.5c0 1.1-1.6 3.9-4.8 2.6c-3-1.2-3.9-7 0.4-4.3c3.6 2.3 5 1.6 5 1.6" /><path class="s15" d="m694.3 298.6c-3.8-2.3-5.5-1.1-5.5-1.1" /></g><g clip-path="url(#cp19)"><path class="s19" d="m680.6 260.5c0.9-5.1 0.7-7.1 0.1-9.4q-0.2-1.1-0.6-2.2c-2.1-0.9-3.8 1.7-6.7 1.3c-7.6-1-13.4-4.3-19.9-2.9c-4 0.9-4.7 4.5-3.5 11.2c0.3 1.8 0.3 3.6-1.2 5.4c-0.3-0.9-1.6-4.7-5.9-4.2c-4 0.5-5.5 9.9 2.8 13.1c-0.1 1.8-1.8 5.2-3.1 6c0 0-0.3-2.5-2.9-5.7c-2.7-3.2-8-11.5-4.4-23.6c3.6-12.1 19.9-18.5 35-12.3c2.6 1.1 4.8 2.6 6.5 4.1c4 3.7 6.1 9 5.5 14.4c-0.2 1.8-0.7 3.5-1.7 4.8z" /><path class="s19" d="m639.7 248.1c0 0-11.8 8-14.1 1.8c-2.3-6.1 8.5-7 8.5-7c0 0-7.3-4.4-4.4-8.4c3.1-4.2 10 2 10 2c-1.8-4-3.8-10.3 2-9c5.8 1.3 4.8 12 4.8 12c0 2.3-6.8 8.6-6.8 8.6z" /></g><g clip-path="url(#cp20)"><path class="s7" d="m658.2 283.9c0 0-1 0.9-1 1.9c0 0.6-0.4 1.3-0.7 1.8c-0.2 0.4-0.6 0.6-1 0.4c-0.3-0.1-0.6-0.4-0.5-0.8c0-0.5 0-1.6-0.1-3.5c-0.2-3.7 2.5-3.3 2.5-3.3c-0.1 2.6 0.8 3.5 0.8 3.5z" /><path class="s7" d="m665.4 344.7c-0.2-0.3-10.7-18.2-9.1-25c1-4.6-0.4-9.9-1.6-14.6c-0.5-2-1-3.8-1.2-5.4c-0.5-2.7-0.2-5.4 1-7.8c1.2-2.7 1-5.1 1-5.1l0.7-0.1c0 0.1 0.2 2.6-1.1 5.5c-1.1 2.3-1.4 4.8-1 7.4c0.3 1.6 0.8 3.4 1.3 5.3c1.2 4.8 2.6 10.2 1.5 15c-1.4 6.4 9 24.3 9.1 24.4z" /><path class="s21" d="m657.2 285.6c0 0.1 0 0.1 0 0.2c0 0.6-0.3 1.3-0.6 1.8c-0.2 0.4-0.7 0.6-1.1 0.4c-0.3-0.1-0.5-0.4-0.5-0.8c0-0.3 0-0.8 0-1.5c0.7 0.4 1.5 0.2 2.2-0.1z" /><path class="s7" d="m686.4 307.8c-0.3 1.6-0.3 4-0.4 6.8c-0.1 5.5-3.3 26.8-4.9 30.2l-0.6-0.3c1.5-3.3 4.8-24.5 4.9-29.9c0-2.8 0.1-5.3 0.3-6.9c0.5-3.3 0.1-5.9-0.1-6.9c0.1-0.1 0.2-0.2 0.3-0.3c0.1-0.1 0.2-0.2 0.3-0.2c0.2 0.8 0.8 3.6 0.2 7.5z" /></g><path class="s38" d="m843.5 383c-27.6 0-50-22.4-50-50c0-27.7 22.4-50 50-50c27.7 0 50 22.4 50 50c0.1 27.6-22.3 50-50 50z" /><g clip-path="url(#cp21)"><path class="s39" d="m883.7 390.4c-0.3 0.2-0.5 0.3-0.8 0.5c-0.2 0.2-0.5 0.3-0.7 0.5c-0.3 0.1-0.5 0.2-0.7 0.4c0 0-0.1 0-0.1 0q-1.2 0.7-2.4 1.3c-0.2 0.2-0.5 0.3-0.7 0.4c0 0 0 0-0.1 0q-0.4 0.2-0.8 0.4c-0.5 0.3-1.1 0.5-1.6 0.8c-0.3 0.1-0.6 0.2-0.8 0.3c-0.3 0.1-0.6 0.2-0.9 0.3c-0.2 0.1-0.5 0.3-0.8 0.4q0 0 0 0c-0.3 0.1-0.6 0.2-0.9 0.3c-0.6 0.2-1.2 0.4-1.8 0.6c-0.2 0-0.4 0.1-0.6 0.2q-1 0.3-1.9 0.5c-0.3 0-0.5 0.1-0.8 0.1c-0.6 0.2-1.2 0.3-1.8 0.4c-0.1 0.1-0.2 0.1-0.4 0.1c-0.2 0-0.4 0.1-0.6 0.1c-0.3 0-0.6 0.1-0.9 0.1c-0.1 0.1-0.2 0.1-0.4 0.1q-0.2 0.1-0.5 0.1c-0.6 0-1.1 0.1-1.7 0.2c-0.1 0-0.3 0-0.5 0c-0.3 0.1-0.5 0.1-0.7 0.1q-0.4 0-0.7 0c-0.2 0-0.3 0.1-0.5 0.1c-0.2 0-0.5 0-0.7 0c-0.3 0-0.6 0-1 0c-0.3 0-0.6 0-0.9 0q-0.4 0-0.7 0c-14.1-0.2-26.7-6.1-35.7-15.6c0 0 0 0-0.1 0c1.1-2.1 4.9-5.7 8.9-8.8c5.1-3.8 12.2-6.2 12.2-6.2c0 0 4.7-0.7 22.2 2.9c13.3 2.8 18.9 14.2 20.9 19.4z" /><path class="s39" d="m866.5 380.2c-0.7 3.5-5.3 5.5-12.9 2.4c-9.4-3.8-13-14.5-13-14.5c-0.5-7.6-1.6-14.2-1.6-14.2c10.8-0.9 23.6 11.7 23.6 11.7l1.5 6.3c0.1 0.5 0.4 1 0.8 1.3c0.7 1.2 2 4.8 1.6 7z" /><path class="s40" d="m864.9 373.3c-6.4-0.4-11.1-1.3-16.1-10.3c4.2 3.7 9.3 5.2 14.6 5.8l0.7 3.1q0.2 0.9 0.8 1.4z" /><path class="s39" d="m878 333.1c0.6 2.8 0.9 5.1-0.7 12.5c-1.6 7.5 1.5 15-6.4 21.8c-5.3 4.6-14.5 5.5-21.9 0.4c-2.5-1.7-4.8-4-6.7-7.1c-1.5-2.5-3.2-4.8-5.1-6.9c-2.6-2.8-5.8-8.6-4.2-18.8c2.5-16.6 19-18.5 28.7-16.7c9.7 1.9 14.7 7.4 16.3 14.8z" /><path class="s39" d="m844.1 355.1c-9.5-2.8-8.1-12.8-3.9-13.4c4.9-0.6 5.9 4.4 5.9 4.4" /><path class="s15" d="m839.9 347.3c-0.1-0.3 0.3-2.4 2.1-1.7c0.7 0.3 0.9 1.3 0.7 2.9c-0.1 1.3 1.1 2.1 1.1 2.1" /><path class="s40" d="m865.8 351.7c0.4-0.8 6.4-1.7 6.8-1.4c0.3 0.3-0.2 1.3-0.9 2.1c-1.2 1.5-2.5 1.4-2.5 1.4c-1.5 0-3.8-1.3-3.4-2.1z" /><path class="s15" d="m870.2 342.6c0 0 0.1 3.2 2.1 6.7c0.9 1.6-0.4 4.1-3.4 4.6" /><path class="s41" d="m855.6 352.7c0 1.5-1.5 2.8-3.4 2.8c-1.9 0-3.5-1.3-3.5-2.8c0-1.6 1.6-2.9 3.5-2.9c1.9 0 3.4 1.3 3.4 2.9z" /><path class="s41" d="m876.8 349.9c-0.1 1.9-0.1 3.7-0.2 5.5c-1.5-0.3-2.6-1.4-2.6-2.7c0-1.4 1.2-2.5 2.8-2.8z" /></g><g clip-path="url(#cp22)"><path class="s42" d="m885.9 445.3h-84.3c0 0 0.5-15.5 5.6-26.5c3.8-8.4 12.8-13 19.6-15.4c1.9-0.7 3.6-1.2 4.9-1.5c0 0.1 0.1 0.3 0.1 0.4c0 0 3.6 10.7 12.9 14.5c7.7 3.1 12.2 1.1 12.9-2.4c0.4-2.2-0.9-5.8-1.6-6.9c-0.4-0.4-0.7-0.9-0.8-1.4l-0.3-1.1q1-0.2 1.8-0.5c0.2 0 0.4-0.1 0.6-0.2c4.3 1.2 10.8 3.9 18.4 10.3c8.6 7.2 10.2 30.7 10.2 30.7z" /><path class="s7" d="m841.8 420.3c-11.5-5.2-15.9-14.4-15.1-16.9q0 0 0.1-0.1c0.6-1.2 1.5-2.2 2.7-2.9c0.7-0.4 1.4-0.8 2-1c0.1 0.5 0.2 2 0.2 2.5c0 0.1 0.1 0.3 0.1 0.4c0 0 2.1 8 11.5 11.8c7.6 3.1 12.3 1.1 12.8-2.4c0.6-3.8-1.6-6.6-1.6-6.6c0.7-0.1 1.7-0.4 2.3-0.6c1.4 1.8 2.9 3.6 3.5 8.2c0.8 6.7-6.6 13-18.5 7.6z" /><path class="s18" d="m816.6 432.9l1.5 12.4" /><path class="s18" d="m875.5 445.3c1.3-5.7 0.4-9.3 0.1-11.7c-0.3-2.5 0.7-4.9 0.7-4.9" /></g><g clip-path="url(#cp23)"><path class="s19" d="m880.2 359.2c-0.8 0-1.4-0.7-1.3-1.5v-0.9c0.1-0.8 0.7-1.4 1.5-1.4c0.8 0.1 1.4 0.7 1.4 1.5l-0.1 1c0 0.7-0.7 1.3-1.5 1.3z" /><path class="s19" d="m894.3 359.7c-0.8 0-1.3-0.7-1.3-1.4v-0.9c0.1-0.7 0.7-1.3 1.4-1.2c0.8 0 1.3 0.6 1.3 1.4v0.8c-0.1 0.8-0.7 1.3-1.4 1.3z" /><path class="s15" d="m878.3 356.9c0.2-0.7 1.6-1.3 2.8-1.1c1.5 0.2 2.4 1.5 2.4 1.5" /><path class="s15" d="m893.3 357.6c0 0 0-1.1 1.5-1.1c1.3 0 1.8 1.2 1.8 1.2" /><path class="s19" d="m877.9 349.1c2.5-1.2 6.6-0.4 7.6 0.5c0.4 0.3 0.5 0.7 0.6 1.1c0.1 0.8-0.6 1.4-1.3 1.2c-3.2-1.1-9.1-1.7-6.9-2.8z" /><path class="s19" d="m894.8 352.4c-0.6 0.2-1.2-0.4-1.1-1.1c0.1-0.3 0.2-0.7 0.5-1c0.8-0.8 3.5-1.4 5.2-0.2c1.5 1.1-2 1.4-4.6 2.3z" /></g><g clip-path="url(#cp24)"><path class="s15" d="m893.7 387.6c-0.8 0.3-1.2-0.4-2.5 0.2c-0.9 0.5-1.4 0.6-2.6-0.1c-0.7-0.4-1.6 0.2-2.5-1" /></g><g clip-path="url(#cp25)"><path class="s19" d="m858.3 371c2.5-0.6 4.6-1.7 6.4-3.3c7.9-6.8 4.7-14.3 6.4-21.7c0.5-2.4 0.8-4.3 1-5.8q-0.4-0.1-0.9-0.1c-1.2-0.2-2-1.3-1.8-2.5q0.1-0.8 0.1-1.5c-0.1-0.1-0.1-0.1-0.2-0.1c-0.2 0.7-0.5 1.3-0.6 2c-0.3 1-1.3 1.6-2.3 1.5c-1.2-0.1-2.1-1-2.1-2.2c0.1-0.8 0.1-1.7 0.1-2.5c-0.1 0-0.1 0-0.2 0q-0.2 1.2-0.5 2.6c-0.2 1.1-1.2 1.9-2.3 1.8c-2.8-0.1-5.7-0.2-8.2-0.2c-1.2 0-2.1-0.8-2.2-1.9c-0.2-1.5-0.4-3-0.8-4.5c-0.4 1.4-0.4 2.8-0.4 4.2c0.1 1.2-0.9 2.3-2.1 2.3c-3 0.1-5 0.2-5.3 0.2c0.1 4.6-0.9 9.6-2.8 6.2c-0.1-0.2-0.2-0.5-0.3-0.8c-0.8-1.3-2.3-3-5.2-2.6c-4.1 0.5-5.6 10 2.9 13.1q0.1 1 0.5 2.1c1.3 3.2 1.9 5.8 1.9 8c0 12.6-20.6 7.3-26.4-4.1c-2.2-4.4-2.2-9.7 2-15.3c10.4-12.7 7.3-7.9 9.6-15.4c3.7-12.4 12.3-16.3 23.7-16.2c0 0 19 0 24 4.6c5.1 4.6 3.3 19 2.9 20.3c-0.1 0.4-0.5 0.6-0.8 0.8c-0.2 6.5 0.4 8.8 2.8 14.1c5.1 11.7-4.6 22.8-18.9 16.9z" /><path class="s23" d="m839.6 345.5c-0.1-0.2-0.2-0.4-0.3-0.7q0.2 0.4 0.3 0.7z" /></g><g clip-path="url(#cp26)"><path class="s43" d="m885.7 374.8c0 0.7-0.7 1.2-1.3 0.9c-2.7-1.1-3.1-3.4-3.1-3.4c0.2 0.3 4.4 2.5 4.4 2.5z" /><path class="s43" d="m875.4 365.1l2.8-0.6c-1.1 0.2-3.2 2.3-3.2 2.3z" /><path class="s43" d="m868 374.2c5.1-0.7 6.3-4.9 6.3-4.9c-1.5 4.5-4.9 7.2-8.6 6.5c-3.7-0.7-4.9-3.5-4.9-3.5c0 0 2.2 2.8 7.2 1.9z" /><path class="s44" d="m872.5 359.7l-12.1 12.2c-1.4-1.5-2.2-3.6-2.2-5.8c0-4.8 3.8-8.8 8.5-8.8c2.3 0 4.3 0.9 5.8 2.4z" /><path class="s45" d="m875 366c-0.1 4.8-3.9 8.6-8.5 8.6c-2.4 0-4.6-1-6.1-2.7l12.1-12.2c1.6 1.6 2.6 3.8 2.5 6.3z" /><path class="s44" d="m891.2 360.7l-10.6 10.5c-0.7-1.4-1.1-3.2-1.1-5.1c0.2-4.8 3.2-8.8 6.7-8.8c2.1 0 3.9 1.4 5 3.4z" /><path class="s45" d="m892.3 366c-0.2 4.8-3.2 8.6-6.7 8.6c-2.1 0-3.9-1.3-5-3.4l10.6-10.5c0.8 1.5 1.2 3.4 1.1 5.3z" /><path class="s46" d="m875 366.1c-0.1 4.7-3.9 8.6-8.5 8.6c-4.7 0-8.4-3.9-8.4-8.6c0.1-4.8 3.9-8.8 8.6-8.8c4.7 0 8.5 4 8.3 8.8z" /><path class="s46" d="m892.3 366.1c-0.2 4.7-3.2 8.6-6.7 8.6c-3.5 0-6.2-3.9-6.1-8.6c0.2-4.8 3.2-8.8 6.7-8.8c3.6 0 6.3 4 6.1 8.8z" /><path class="s46" d="m853.5 365.1h4.7" /><path class="s46" d="m879.5 365.1c-0.5-1.5-4.4 0-4.4 0" /></g><path class="s7" d="m701.3 644.7c0-13.1 10.6-23.7 23.7-23.7h247.3c13.1 0 23.7 10.6 23.7 23.7v182.3c0 13.1-10.6 23.7-23.7 23.7h-247.3c-13.1 0-23.7-10.6-23.7-23.7z" /><path class="s7" d="m848.7 891l-28.9-43h57.7z" /><text style="transform: matrix(.333,0,0,.333,732.333,674.303)" ><tspan x="31" y="45" class="t47">Want to work together </tspan><tspan x="41.6" y="129" class="t47">or do a collaboration? </tspan><tspan x="118.2" y="213" class="t47">Contact Anne at </tspan><tspan x="61.6" y="297" class="t48">anne@drawkit.com
</tspan></text></g></svg>